<svg width="1440" height="200" viewBox="0 0 1440 200" fill="none" xmlns="http://www.w3.org/2000/svg">
<rect x="0.5" y="0.5" width="1439" height="199" fill="#FAFAFA" stroke="#D8D8D8"/>
<path d="M345.881 93.2364H343.213V84.5909H345.881V93.2364V93.2364ZM344.545 83.4116C343.692 83.4116 343 82.7005 343 81.842C343 80.9836 343.692 80.287 344.545 80.287C345.398 80.287 346.09 80.9836 346.09 81.842C346.09 82.7005 345.398 83.4116 344.545 83.4116ZM355.866 93.2364H353.204V89.0278C353.204 88.0248 353.184 86.7386 351.817 86.7386C350.43 86.7386 350.217 87.8283 350.217 88.9556V93.2364H347.552V84.5909H350.111V85.7702H350.148C350.504 85.091 351.374 84.3741 352.673 84.3741C355.372 84.3741 355.869 86.1634 355.869 88.4873V93.2364H355.866Z" fill="#696969"/>
<path d="M396.04 83.4942C396.05 83.6349 396.05 83.7757 396.05 83.9164C396.05 88.2094 392.733 93.156 386.67 93.156C384.802 93.156 383.067 92.6231 381.607 91.6982C381.873 91.7283 382.128 91.7384 382.403 91.7384C383.945 91.7384 385.363 91.2257 386.496 90.351C385.047 90.3208 383.832 89.3858 383.414 88.0989C383.618 88.129 383.822 88.1491 384.036 88.1491C384.332 88.1491 384.628 88.1089 384.904 88.0385C383.393 87.7369 382.26 86.4299 382.26 84.8514V84.8112C382.699 85.0525 383.21 85.2033 383.751 85.2234C382.863 84.6403 382.281 83.645 382.281 82.5189C382.281 81.9157 382.444 81.3627 382.73 80.8801C384.353 82.8507 386.792 84.1376 389.528 84.2784C389.477 84.0371 389.446 83.7857 389.446 83.5344C389.446 81.7448 390.916 80.287 392.743 80.287C393.692 80.287 394.55 80.6791 395.152 81.3125C395.897 81.1717 396.611 80.9002 397.244 80.5283C396.999 81.2823 396.479 81.9157 395.795 82.3178C396.458 82.2475 397.101 82.0665 397.693 81.8152C397.244 82.4586 396.683 83.0316 396.04 83.4942V83.4942Z" fill="#696969"/>
<path d="M425.862 95.0863V87.8914H423.431V85.0324H425.862V82.7797C425.862 80.3321 427.37 79 429.572 79C430.627 79 431.533 79.0785 431.796 79.1131V81.6706H430.269C429.071 81.6706 428.84 82.2361 428.84 83.0624V85.0324H431.543L431.172 87.8914H428.84V95.0863" fill="#696969"/>
<path d="M464.029 80.287C460.763 80.287 457.534 82.3151 457.534 85.5976C457.534 87.6851 458.795 88.8711 459.559 88.8711C459.874 88.8711 460.056 88.0527 460.056 87.8215C460.056 87.5457 459.301 86.9586 459.301 85.8111C459.301 83.4271 461.25 81.7369 463.771 81.7369C465.94 81.7369 467.544 82.8844 467.544 84.9927C467.544 86.5672 466.866 89.5205 464.669 89.5205C463.876 89.5205 463.198 88.9868 463.198 88.2218C463.198 87.1009 464.039 86.0157 464.039 84.8592C464.039 82.8963 461.049 83.2521 461.049 85.6243C461.049 86.1224 461.116 86.6739 461.355 87.1276C460.916 88.8889 460.018 91.5131 460.018 93.3278C460.018 93.8882 460.104 94.4397 460.161 95.0001C460.269 95.1128 460.215 95.1009 460.381 95.0446C461.985 92.9986 461.928 92.5983 462.654 89.9208C463.045 90.6146 464.058 90.9883 464.86 90.9883C468.241 90.9883 469.76 87.9193 469.76 85.1528C469.76 82.2084 467.028 80.287 464.029 80.287Z" fill="#696969"/>
<g clip-path="url(#clip0_1_41)">
<path d="M1441.65 146.483C1461.59 132.427 1466.67 105.328 1453.01 85.9559C1439.34 66.5835 1412.11 62.2738 1392.18 76.3298C1372.25 90.3859 1367.17 117.485 1380.83 136.857C1394.49 156.23 1421.72 160.539 1441.65 146.483Z" fill="#FAD34F"/>
<path d="M1413.17 91.788C1414.09 93.0975 1412.64 93.2187 1411.29 94.1688C1409.94 95.119 1409.21 96.5408 1408.29 95.2289C1407.36 93.917 1407.71 92.0874 1409.06 91.1372C1410.4 90.1847 1412.24 90.4761 1413.17 91.788Z" fill="white"/>
<path d="M1422.49 85.2131C1423.41 86.5226 1421.96 86.6438 1420.61 87.594C1419.27 88.5441 1418.54 89.9659 1417.61 88.654C1416.69 87.3422 1417.03 85.5125 1418.38 84.5624C1419.73 83.6099 1421.57 83.9012 1422.49 85.2131Z" fill="white"/>
<path d="M1424.47 92.9342C1426.27 95.4925 1425.6 99.0717 1422.97 100.928C1420.34 102.784 1416.74 102.215 1414.93 99.6566C1413.13 97.0983 1417.19 98.3293 1419.83 96.4731C1422.46 94.6169 1422.66 90.376 1424.47 92.9342Z" fill="white"/>
</g>
<path d="M1312.46 57.7675C1312.46 79.435 1294.9 97 1273.23 97V97C1251.56 97 1234 79.435 1234 57.7675V0H1312.46V57.7675Z" fill="#46EBB0"/>
<path d="M1272.01 69.05C1272.01 66.241 1274.29 69.05 1277.1 69.05C1279.91 69.05 1282.19 66.241 1282.19 69.05C1282.19 71.8591 1279.91 74.1398 1277.1 74.1398C1274.29 74.1398 1272.01 71.8617 1272.01 69.05Z" fill="white"/>
<path d="M1255.99 69.05C1255.99 66.241 1258.26 69.05 1261.08 69.05C1263.89 69.05 1266.17 66.241 1266.17 69.05C1266.17 71.8591 1263.89 74.1398 1261.08 74.1398C1258.26 74.1398 1255.99 71.8617 1255.99 69.05Z" fill="white"/>
<path d="M1261.09 58.2664C1261.09 53.0982 1265.28 48.9108 1270.44 48.9108C1275.61 48.9108 1279.8 53.1008 1279.8 58.2664C1279.8 63.4321 1275.61 57.9055 1270.44 57.9055C1265.28 57.9055 1261.09 63.4321 1261.09 58.2664Z" fill="white"/>
<defs>
<clipPath id="clip0_1_41">
<rect width="88.3204" height="85.8441" fill="white" transform="translate(1356 101.901) rotate(-35.1926)"/>
</clipPath>
</defs>
</svg>
